<svg width="0" height="0" class="hidden">
  <symbol fill="none" xmlns="http://www.w3.org/2000/svg" viewBox="0 0 20 20" id="dribbble-icon">
    <path d="M9.6875 0C4.34578 0 0 4.34578 0 9.6875C0 15.0292 4.34578 19.375 9.6875 19.375C15.0292 19.375 19.375 15.0292 19.375 9.6875C19.375 4.34578 15.0292 0 9.6875 0ZM16.0926 4.46742C17.245 5.87547 17.9429 7.66887 17.9611 9.62191C17.6883 9.56422 14.9526 9.00934 12.1993 9.35559C11.9746 8.80711 11.7626 8.32461 11.4721 7.73004C14.5315 6.48094 15.9181 4.7034 16.0926 4.46742ZM15.1727 3.51055C15.0239 3.72254 13.7783 5.39672 10.8359 6.49957C9.48 4.00832 7.97715 1.96176 7.74844 1.65551C10.3725 1.02297 13.1377 1.70512 15.1727 3.51055ZM6.16957 2.21172C6.38773 2.5109 7.86637 4.56 9.23742 6.99723C5.36684 8.02508 1.95773 8.01027 1.58766 8.00539C2.12422 5.4377 3.85461 3.30363 6.16957 2.21172ZM1.41289 9.70012C1.41289 9.61551 1.41457 9.53129 1.41711 9.44727C1.77914 9.45469 5.78898 9.50637 9.92125 8.26969C10.1581 8.73328 10.3844 9.20387 10.5921 9.67395C7.59996 10.5167 4.88141 12.9367 3.54012 15.2328C2.21852 13.7658 1.41289 11.8254 1.41289 9.70012ZM4.60848 16.228C5.47281 14.4611 7.81855 12.1802 11.1545 11.0422C12.3162 14.0611 12.7967 16.5911 12.9197 17.3171C10.2591 18.4504 7.05977 18.1395 4.60848 16.228ZM14.3108 16.5596C14.226 16.0562 13.7856 13.6339 12.7033 10.6598C15.2963 10.2448 17.5744 10.9242 17.8575 11.0136C17.4887 13.3159 16.1671 15.3043 14.3108 16.5596Z" fill="#0D0D0D"></path>
  </symbol>
  <symbol fill="none" xmlns="http://www.w3.org/2000/svg" viewBox="0 0 20 17" id="twitter-icon">
    <path d="M17.9441 4.0482C17.9568 4.22586 17.9568 4.40355 17.9568 4.58121C17.9568 9.99996 13.8325 16.2436 6.29441 16.2436C3.97207 16.2436 1.81473 15.571 0 14.4036C0.329961 14.4416 0.647187 14.4543 0.989844 14.4543C2.90605 14.4543 4.67004 13.8071 6.07867 12.703C4.27664 12.665 2.76648 11.4848 2.24617 9.86039C2.5 9.89844 2.75379 9.92383 3.02031 9.92383C3.38832 9.92383 3.75637 9.87305 4.09898 9.78426C2.22082 9.40351 0.812148 7.75379 0.812148 5.76141V5.71066C1.35781 6.01523 1.99238 6.20559 2.66492 6.23094C1.56086 5.49488 0.837539 4.23855 0.837539 2.81723C0.837539 2.05582 1.04055 1.35785 1.3959 0.748711C3.41367 3.23602 6.44668 4.86035 9.84766 5.03805C9.78422 4.73348 9.74613 4.41625 9.74613 4.09898C9.74613 1.84008 11.5736 0 13.8451 0C15.0253 0 16.0913 0.494922 16.84 1.29441C17.7664 1.11676 18.6547 0.774102 19.4416 0.30457C19.137 1.25637 18.4898 2.05586 17.6395 2.56344C18.4644 2.47465 19.2639 2.24617 19.9999 1.92895C19.4416 2.74109 18.7436 3.46441 17.9441 4.0482Z" fill="#3DB370"></path>
  </symbol>
</svg>